# xmcd
#
# Track frame offsets: 
#        150
#        17062
#        32315
#        49045
#        64939
#        84150
#        96850
#        113662
#        130490
#        148105
#        168757
#        184384
#
# Disc length: 2746 seconds
#
# Revision: 0
# Processed by: cddbd v1.5.2PL0 Copyright (c) Steve Scherf et al.
# Submitted via: ExactAudioCopyFreeDBPlugin 1.0
#
DISCID=990ab80c
DTITLE=The Killens - A Voice Like Yours 
DYEAR=2001
DGENRE=Country
TTITLE0=You Know That Feeling by Heart
TTITLE1=You're Still Happening to Me
TTITLE2=Wild Horse
TTITLE3=One Love
TTITLE4=A Voice Like Yours
TTITLE5=Wait for Love
TTITLE6=Any Other Man
TTITLE7=River of Love
TTITLE8=History
TTITLE9=The Way He Looks
TTITLE10=Steps
TTITLE11=Field of Stone
EXTD=
EXTT0=
EXTT1=
EXTT2=
EXTT3=
EXTT4=
EXTT5=
EXTT6=
EXTT7=
EXTT8=
EXTT9=
EXTT10=
EXTT11=
PLAYORDER=
